HIERARCHY
ROOT hip
{
  OFFSET 0 0 0
  CHANNELS 6 Xposition Yposition Zposition Zrotation Yrotation Xrotation
  JOINT abdomen
  {
    OFFSET 0 20.6881 -0.73152
    CHANNELS 3 Zrotation Xrotation Yrotation
    JOINT chest
    {
      OFFSET 0 11.7043 -0.48768
      CHANNELS 3 Zrotation Xrotation Yrotation
      JOINT neck
      {
        OFFSET 0 22.1894 -2.19456
        CHANNELS 3 Zrotation Xrotation Yrotation
        JOINT head
        {
          OFFSET -0.24384 7.07133 1.2192
          CHANNELS 3 Zrotation Xrotation Yrotation
          JOINT leftEye
          {
            OFFSET 4.14528 8.04674 8.04672
            CHANNELS 3 Zrotation Xrotation Yrotation
            End Site
            {
              OFFSET 1 0 0
            }
          }
          JOINT rightEye
          {
            OFFSET -3.6576 8.04674 8.04672
            CHANNELS 3 Zrotation Xrotation Yrotation
            End Site
            {
              OFFSET 1 0 0
            }
          }
        }
      }
      JOINT rCollar
      {
        OFFSET -2.68224 19.2634 -4.8768
        CHANNELS 3 Zrotation Xrotation Yrotation
        JOINT rShldr
        {
          OFFSET -8.77824 -1.95073 1.46304
          CHANNELS 3 Zrotation Xrotation Yrotation
          JOINT rForeArm
          {
            OFFSET -28.1742 -1.7115 0.48768
            CHANNELS 3 Zrotation Xrotation Yrotation
            JOINT rHand
            {
              OFFSET -22.5879 0.773209 7.07136
              CHANNELS 3 Zrotation Xrotation Yrotation
              JOINT rThumb1
              {
                OFFSET -1.2192 -0.487915 3.41376
                CHANNELS 3 Zrotation Xrotation Yrotation
                JOINT rThumb2
                {
                  OFFSET -3.37035 -0.52449 3.41376
                  CHANNELS 3 Zrotation Xrotation Yrotation
                  End Site
                  {
                    OFFSET -1.78271 -1.18214 1.43049
                  }
                }
              }
              JOINT rIndex1
              {
                OFFSET -7.75947 0.938293 5.60832
                CHANNELS 3 Zrotation Xrotation Yrotation
                JOINT rIndex2
                {
                  OFFSET -2.54057 -0.884171 1.56538
                  CHANNELS 3 Zrotation Xrotation Yrotation
                  End Site
                  {
                    OFFSET -1.62519 -0.234802 1.16502
                  }
                }
              }
              JOINT rMid1
              {
                OFFSET -8.24714 1.18213 3.41376
                CHANNELS 3 Zrotation Xrotation Yrotation
                JOINT rMid2
                {
                  OFFSET -3.10165 -0.590103 1.0647
                  CHANNELS 3 Zrotation Xrotation Yrotation
                  End Site
                  {
                    OFFSET -2.48547 -0.328903 0.83742
                  }
                }
              }
              JOINT rRing1
              {
                OFFSET -8.82822 0.546677 1.51678
                CHANNELS 3 Zrotation Xrotation Yrotation
                JOINT rRing2
                {
                  OFFSET -2.60934 -0.819778 -0.0198488
                  CHANNELS 3 Zrotation Xrotation Yrotation
                  End Site
                  {
                    OFFSET -2.33842 -0.294052 0.168128
                  }
                }
              }
              JOINT rPinky1
              {
                OFFSET -8.27202 -0.0477905 -0.4584
                CHANNELS 3 Zrotation Xrotation Yrotation
                JOINT rPinky2
                {
                  OFFSET -1.82734 -0.647385 -0.700984
                  CHANNELS 3 Zrotation Xrotation Yrotation
                  End Site
                  {
                    OFFSET -1.69225 -0.51767 -0.607171
                  }
                }
              }
            }
          }
        }
      }
      JOINT lCollar
      {
        OFFSET 2.68224 19.2634 -4.8768
        CHANNELS 3 Zrotation Xrotation Yrotation
        JOINT lShldr
        {
          OFFSET 8.77824 -1.95073 1.46304
          CHANNELS 3 Zrotation Xrotation Yrotation
          JOINT lForeArm
          {
            OFFSET 28.1742 -1.7115 0.48768
            CHANNELS 3 Zrotation Xrotation Yrotation
            JOINT lHand
            {
              OFFSET 22.5879 0.773209 7.07136
              CHANNELS 3 Zrotation Xrotation Yrotation
              JOINT lThumb1
              {
                OFFSET 1.2192 -0.487915 3.41376
                CHANNELS 3 Zrotation Xrotation Yrotation
                JOINT lThumb2
                {
                  OFFSET 3.37035 -0.52449 3.41376
                  CHANNELS 3 Zrotation Xrotation Yrotation
                  End Site
                  {
                    OFFSET 1.78271 -1.18214 1.43049
                  }
                }
              }
              JOINT lIndex1
              {
                OFFSET 7.75947 0.938293 5.60832
                CHANNELS 3 Zrotation Xrotation Yrotation
                JOINT lIndex2
                {
                  OFFSET 2.54057 -0.884171 1.56538
                  CHANNELS 3 Zrotation Xrotation Yrotation
                  End Site
                  {
                    OFFSET 1.62519 -0.234802 1.16502
                  }
                }
              }
              JOINT lMid1
              {
                OFFSET 8.24714 1.18213 3.41376
                CHANNELS 3 Zrotation Xrotation Yrotation
                JOINT lMid2
                {
                  OFFSET 3.10165 -0.590103 1.0647
                  CHANNELS 3 Zrotation Xrotation Yrotation
                  End Site
                  {
                    OFFSET 2.48547 -0.328903 0.83742
                  }
                }
              }
              JOINT lRing1
              {
                OFFSET 8.82822 0.546677 1.51678
                CHANNELS 3 Zrotation Xrotation Yrotation
                JOINT lRing2
                {
                  OFFSET 2.60934 -0.819778 -0.0198488
                  CHANNELS 3 Zrotation Xrotation Yrotation
                  End Site
                  {
                    OFFSET 2.33842 -0.294052 0.168128
                  }
                }
              }
              JOINT lPinky1
              {
                OFFSET 8.27202 -0.0477905 -0.4584
                CHANNELS 3 Zrotation Xrotation Yrotation
                JOINT lPinky2
                {
                  OFFSET 1.82734 -0.647385 -0.700984
                  CHANNELS 3 Zrotation Xrotation Yrotation
                  End Site
                  {
                    OFFSET 1.69225 -0.51767 -0.607171
                  }
                }
              }
            }
          }
        }
      }
    }
  }
  JOINT rButtock
  {
    OFFSET -8.77824 4.35084 1.2192
    CHANNELS 3 Zrotation Xrotation Yrotation
    JOINT rThigh
    {
      OFFSET 0 -1.70687 -2.19456
      CHANNELS 3 Zrotation Xrotation Yrotation
      JOINT rShin
      {
        OFFSET 0 -36.8199 0.73152
        CHANNELS 3 Zrotation Xrotation Yrotation
        JOINT rFoot
        {
          OFFSET 0.73152 -45.1104 -5.12064
          CHANNELS 3 Zrotation Xrotation Yrotation
          End Site
          {
            OFFSET -1.1221 -3.69964 12.103
          }
        }
      }
    }
  }
  JOINT lButtock
  {
    OFFSET 8.77824 4.35084 1.2192
    CHANNELS 3 Zrotation Xrotation Yrotation
    JOINT lThigh
    {
      OFFSET 0 -1.70687 -2.19456
      CHANNELS 3 Zrotation Xrotation Yrotation
      JOINT lShin
      {
        OFFSET 0 -36.8199 0.73152
        CHANNELS 3 Zrotation Xrotation Yrotation
        JOINT lFoot
        {
          OFFSET -0.73152 -45.1104 -5.12064
          CHANNELS 3 Zrotation Xrotation Yrotation
          End Site
          {
            OFFSET 1.1221 -3.69964 12.103
          }
        }
      }
    }
  }
}
MOTION
Frames:	4
Frame Time:	0.00833333
59.2906 82.2158 24.5671 177.302 1.9342 -160.815 -1.50896 -16.5218 1.61393 4.53607 12.5561 -0.101101 -0.775575 11.9812 -3.04663 4.53035 -5.41271 -3.39467 -0.0 0.0 0.0 -0.0 0.0 0.0 -2.78875e-14 1.46307e-13 7.00716e-15 79.9403 9.45806 -0.742475 -18.0709 -10.7631 34.1793 -0.0344637 -5.29145 -0.745807 -1.14314e-10 7.91528e-10 -5.51502e-10 -1.98069e-10 1.36534e-09 -9.56557e-10 -1.14311e-10 7.91525e-10 -5.51511e-10 7.73091 5.47488 0.417314 -1.14315e-10 7.91526e-10 -5.51502e-10 2.90554 0.965183 0.102902 -1.14309e-10 7.91527e-10 -5.51503e-10 10.2786 0.731801 0.0259123 -1.14325e-10 7.91533e-10 -5.51499e-10 2.22167 -0.733487 -0.20892 -2.79728e-14 1.46303e-13 6.60959e-15 -76.7579 22.0714 1.69467 11.5149 -5.11422 -20.6749 0.0915743 8.59983 -1.21788 -4.03359e-10 4.9546e-10 1.53949e-09 -6.85663e-10 8.59036e-10 2.66486e-09 -4.03363e-10 4.95456e-10 1.5395e-09 -7.73091 5.47488 -0.417314 -4.03358e-10 4.95453e-10 1.53949e-09 -2.90554 0.965183 -0.102902 -4.03359e-10 4.95451e-10 1.53949e-09 -10.2786 0.731801 -0.0259123 -4.03353e-10 4.95452e-10 1.53948e-09 -2.22167 -0.733487 0.20892 -2.03217e-16 0.0 -3.88251e-19 7.92123 -32.4578 9.74585 0.0475621 20.5764 0.819196 -3.05052 -15.9869 -8.62633 2.03217e-16 0.0 3.88251e-19 0.866554 -82.9158 1.23939 166.066 85.3048 -166.714 1.96812 -7.40015 5.77868
59.3304 82.2303 24.105 177.289 1.9681 -160.879 -1.60361 -16.449 1.82812 4.47679 12.5061 -0.0442687 -0.882875 11.9334 -2.73588 4.62526 -5.36164 -3.74299 -0.0 0.0 0.0 -0.0 0.0 0.0 -4.89086e-15 2.07135e-13 -5.53724e-15 79.8829 9.7367 -0.400738 -18.2063 -10.9106 34.4835 -0.0370424 -5.48806 -0.773683 -5.17425e-10 1.28915e-09 -5.53443e-10 -8.94959e-10 2.22477e-09 -9.61802e-10 -5.17423e-10 1.28915e-09 -5.53453e-10 7.73091 5.47488 0.417314 -5.17426e-10 1.28915e-09 -5.53444e-10 2.90554 0.965183 0.102902 -5.1742e-10 1.28915e-09 -5.53446e-10 10.2786 0.731801 0.0259123 -5.17435e-10 1.28915e-09 -5.53444e-10 2.22167 -0.733487 -0.20892 -4.96521e-15 2.07132e-13 -5.91617e-15 -76.7485 21.7215 1.799 11.3631 -5.01231 -20.3832 0.0953597 8.77667 -1.24331 -8.41787e-10 5.98569e-10 1.84164e-09 -1.43969e-09 1.03753e-09 3.19063e-09 -8.41789e-10 5.98566e-10 1.84165e-09 -7.73091 5.47488 -0.417314 -8.41784e-10 5.98565e-10 1.84164e-09 -2.90554 0.965183 -0.102902 -8.41788e-10 5.98563e-10 1.84164e-09 -10.2786 0.731801 -0.0259123 -8.41782e-10 5.98563e-10 1.84164e-09 -2.22167 -0.733487 0.20892 -2.03217e-16 0.0 -3.88251e-19 7.93751 -32.049 9.82776 0.0547585 20.4859 0.883268 -3.1117 -16.1459 -8.72225 2.03217e-16 0.0 3.88251e-19 2.09548 -84.0886 2.48014 164.947 85.6875 -165.626 2.06183 -7.69998 5.94481
59.369 82.2473 23.61 177.338 1.9336 -160.842 -1.60425 -16.4399 1.99443 4.38977 12.4907 -0.00298368 -1.05 11.8869 -2.2647 4.76827 -5.30567 -4.21802 -0.0 0.0 0.0 -0.0 0.0 0.0 4.14206e-14 3.96775e-13 -3.56632e-14 79.805 10.104 -0.0865461 -18.3469 -11.0653 34.8006 -0.0398942 -5.69724 -0.803361 -1.49261e-09 2.69426e-09 -9.44338e-10 -2.58066e-09 4.65153e-09 -1.64183e-09 -1.49261e-09 2.69427e-09 -9.44349e-10 7.73091 5.47488 0.417314 -1.49261e-09 2.69426e-09 -9.4434e-10 2.90554 0.965183 0.102902 -1.49261e-09 2.69426e-09 -9.44343e-10 10.2786 0.731801 0.0259123 -1.49262e-09 2.69427e-09 -9.44343e-10 2.22167 -0.733487 -0.20892 4.1348e-14 3.96773e-13 -3.59987e-14 -76.741 21.2989 1.89442 11.1995 -4.90355 -20.0698 0.0999193 8.98247 -1.27294 -1.94469e-09 1.01106e-09 2.94696e-09 -3.33517e-09 1.75315e-09 5.10956e-09 -1.94469e-09 1.01106e-09 2.94697e-09 -7.73091 5.47488 -0.417314 -1.94468e-09 1.01106e-09 2.94696e-09 -2.90554 0.965183 -0.102902 -1.94469e-09 1.01106e-09 2.94696e-09 -10.2786 0.731801 -0.0259123 -1.94468e-09 1.01106e-09 2.94696e-09 -2.22167 -0.733487 0.20892 -2.03217e-16 0.0 -3.88251e-19 7.99176 -31.6232 9.82535 0.0618242 20.3617 0.947158 -3.16571 -16.3105 -8.79038 2.03217e-16 0.0 3.88251e-19 3.45551 -85.1737 3.76913 162.909 86.2389 -163.621 2.1697 -7.94839 6.17539
59.4044 82.2722 23.1376 177.277 2.0589 -160.839 -1.60622 -16.4462 2.13698 4.29866 12.4927 0.0321169 -1.21432 11.834 -1.79113 4.89243 -5.25144 -4.68632 -0.0 0.0 0.0 -0.0 0.0 0.0 8.51364e-14 6.09076e-13 -6.54009e-14 79.7129 10.5026 0.241976 -18.4755 -11.2079 35.0939 -0.0425975 -5.88487 -0.830007 -2.53803e-09 4.32364e-09 -1.40859e-09 -4.38799e-09 7.46616e-09 -2.44891e-09 -2.53803e-09 4.32365e-09 -1.40861e-09 7.73091 5.47488 0.417314 -2.53803e-09 4.32365e-09 -1.4086e-09 2.90554 0.965183 0.102902 -2.53802e-09 4.32365e-09 -1.4086e-09 10.2786 0.731801 0.0259123 -2.53803e-09 4.32365e-09 -1.4086e-09 2.22167 -0.733487 -0.20892 8.5065e-14 6.09076e-13 -6.56867e-14 -76.7316 20.8516 1.98206 11.0403 -4.79851 -19.7665 0.104822 9.19632 -1.30378 -3.13529e-09 1.5026e-09 4.28959e-09 -5.38034e-09 2.60602e-09 7.43933e-09 -3.13529e-09 1.5026e-09 4.2896e-09 -7.73091 5.47488 -0.417314 -3.13528e-09 1.5026e-09 4.28959e-09 -2.90554 0.965183 -0.102902 -3.13529e-09 1.5026e-09 4.28959e-09 -10.2786 0.731801 -0.0259123 -3.13529e-09 1.5026e-09 4.28958e-09 -2.22167 -0.733487 0.20892 -2.03217e-16 0.0 -3.88251e-19 8.0187 -31.1986 9.77463 0.0689757 20.2309 1.00835 -3.21417 -16.4815 -8.8323 2.03217e-16 0.0 3.88251e-19 5.17045 -86.1534 5.41139 159.286 86.9249 -160.029 2.27728 -8.15486 6.41908
